<svg width="380" height="400" viewBox="0 0 451 527" fill="none" xmlns="http://www.w3.org/2000/svg">
<path opacity="0.1" d="M445.5 134L195 516.5C185.831 530.5 169.513 526.667 162.5 523L13.5 421C-4.90001 408.6 0.833319 390.833 5.99999 383.5L254.5 10.5C262.9 -1.5 276 0.16667 281.5 2.5L302.5 16C308.1 18 306.833 21.8333 305.5 23.5C301.1 28.7 305 37 307.5 40.5L398 96.5C405.6 98.9 412.5 92.8333 415 89.5C417 86.7 419.167 88.3333 420 89.5L439.5 102C455.1 111.2 450 127.167 445.5 134Z" fill="#3C4EF3"/>
</svg>
